# xmcd
#
# Track frame offsets:
#	150
#	21525
#	46999
#	67053
#	91968
#	108901
#	135331
#	153751
#	174377
#
# Disc length: 2604 seconds
#
# Revision: 0
# Processed by: cddbd v1.5.2PL0 Copyright (c) Steve Scherf et al.
# Submitted via: EasyCDDAExtractor 16.0.9.1
#
DISCID=6d0a2a09
DTITLE=Lệ Quyên - Còn Trong Kỷ Niệm
DYEAR=2016
DGENRE=Pop
TTITLE0=Phải Chi Em Biết
TTITLE1=Còn Trong Kỷ Niệm
TTITLE2=Cố Quên Đến Bao Giờ
TTITLE3=Duyên Phận
TTITLE4=Người Quên Chốn Cũ
TTITLE5=Đoạn Tuyệt
TTITLE6=Con Tim Anh Đã Đổi Thay
TTITLE7=Chuyện Tình Đã Xưa
TTITLE8=Từ Biệt Một Nỗi Yêu Thương
EXTD=
EXTT0=
EXTT1=
EXTT2=
EXTT3=
EXTT4=
EXTT5=
EXTT6=
EXTT7=
EXTT8=
PLAYORDER=
